<svg width="65" height="65" viewBox="0 0 65 65" fill="none" xmlns="http://www.w3.org/2000/svg">
<rect width="65" height="65" rx="32.5" fill="#6D28D9"/>
<path d="M32.5 14C30.0705 14 27.6649 14.4785 25.4204 15.4082C23.1758 16.3379 21.1364 17.7006 19.4185 19.4185C15.9491 22.8879 14 27.5935 14 32.5C14 37.4065 15.9491 42.1121 19.4185 45.5815C21.1364 47.2994 23.1758 48.6621 25.4204 49.5918C27.6649 50.5215 30.0705 51 32.5 51C37.4065 51 42.1121 49.0509 45.5815 45.5815C49.0509 42.1121 51 37.4065 51 32.5C51 30.0705 50.5215 27.6649 49.5918 25.4204C48.6621 23.1758 47.2994 21.1364 45.5815 19.4185C43.8636 17.7006 41.8242 16.3379 39.5796 15.4082C37.3351 14.4785 34.9295 14 32.5 14ZM40.27 40.27L30.65 34.35V23.25H33.425V32.87L41.75 37.865L40.27 40.27Z" fill="white"/>
</svg>
