<svg width="65" height="65" viewBox="0 0 65 65" fill="none" xmlns="http://www.w3.org/2000/svg">
<rect width="65" height="65" rx="32.5" fill="#6D28D9"/>
<path d="M37.2963 14C36.5694 14 35.8723 14.3119 35.3583 14.867C34.8443 15.4221 34.5556 16.175 34.5556 16.96V22.88C34.5556 23.665 34.8443 24.4179 35.3583 24.973C35.8723 25.5281 36.5694 25.84 37.2963 25.84V30.28L42.2296 25.84H48.2593C48.9861 25.84 49.6833 25.5281 50.1973 24.973C50.7112 24.4179 51 23.665 51 22.88V16.96C51 16.175 50.7112 15.4221 50.1973 14.867C49.6833 14.3119 48.9861 14 48.2593 14H37.2963ZM24.963 21.4C23.5092 21.4 22.1149 22.0237 21.087 23.1339C20.059 24.2441 19.4815 25.7499 19.4815 27.32C19.4815 28.8901 20.059 30.3959 21.087 31.5061C22.1149 32.6163 23.5092 33.24 24.963 33.24C26.4167 33.24 27.811 32.6163 28.839 31.5061C29.8669 30.3959 30.4444 28.8901 30.4444 27.32C30.4444 25.7499 29.8669 24.2441 28.839 23.1339C27.811 22.0237 26.4167 21.4 24.963 21.4ZM31.8148 36.2H18.1111C17.0208 36.2 15.9751 36.6678 15.2041 37.5004C14.4331 38.3331 14 39.4624 14 40.64C14 43.9434 15.258 46.5896 17.3218 48.3804C19.3527 50.1416 22.077 51 24.963 51C27.849 51 30.5733 50.1416 32.6041 48.3804C34.6652 46.5896 35.9259 43.9434 35.9259 40.64C35.9259 39.4624 35.4928 38.3331 34.7218 37.5004C33.9508 36.6678 32.9051 36.2 31.8148 36.2Z" fill="white"/>
</svg>
