<svg width="65" height="65" viewBox="0 0 65 65" fill="none" xmlns="http://www.w3.org/2000/svg">
<rect width="65" height="65" rx="32.5" fill="#6D28D9"/>
<path d="M32.8333 15.0834C34.292 15.0834 35.691 15.6628 36.7224 16.6943C37.7539 17.7257 38.3333 19.1247 38.3333 20.5834V31.5834C38.3333 33.0421 37.7539 34.441 36.7224 35.4725C35.691 36.5039 34.292 37.0834 32.8333 37.0834C31.3746 37.0834 29.9757 36.5039 28.9442 35.4725C27.9128 34.441 27.3333 33.0421 27.3333 31.5834V20.5834C27.3333 19.1247 27.9128 17.7257 28.9442 16.6943C29.9757 15.6628 31.3746 15.0834 32.8333 15.0834ZM45.6667 31.5834C45.6667 38.055 40.8817 43.39 34.6667 44.2884V49.9167H31V44.2884C24.785 43.39 20 38.055 20 31.5834H23.6667C23.6667 34.0145 24.6324 36.3461 26.3515 38.0652C28.0706 39.7843 30.4022 40.75 32.8333 40.75C35.2645 40.75 37.5961 39.7843 39.3151 38.0652C41.0342 36.3461 42 34.0145 42 31.5834H45.6667Z" fill="white"/>
</svg>
